<svg xmlns="http://www.w3.org/2000/svg" version="1.1" xmlns:xlink="http://www.w3.org/1999/xlink" xmlns:svgjs="http://svgjs.dev/svgjs" width="100%" height="100%" viewBox="0 0 1000 600"><rect width="1000" height="600" x="0" y="0" fill="#f4efea"/><g><circle r="166.66666666666666" cx="296.05883280436194" cy="318.2810573207438" fill="#000000" transform="matrix(0.9660553557266138,0,0,0.9660553557266138,0,-7.477126063559936)"/><path d="M305.37993474995744 393.28105900592857L286.7377415336059 393.28105900592857L286.7377415336059 243.2810630551427L305.37993474995744 243.2810630551427L305.37993474995744 393.28105900592857Z " fill="#ffff00" transform="matrix(0.9660553557266138,0,0,0.9660553557266138,0,-7.477126063559936)"/><path d="M564.044755395665 390.52875142756534L546.0588379516666 390.52875142756534L546.0588379516666 245.80932316820494L564.044755395665 245.80932316820494L564.044755395665 390.52875142756534ZM610.5777161849419 390.52875142756534L610.5777161849419 245.80932316820494L636.4044695253451 245.80932316820494L686.1697749086502 345.8199851121459L684.3135770229707 345.8199851121459L734.0788824062757 245.80932316820494L759.2015606865937 245.80932316820494L759.2015606865937 390.52875142756534L740.9916193598409 390.52875142756534L740.9916193598409 264.4993156722886L744.2239639538691 264.4993156722886L691.2263139765358 372.3188101008126L679.257037955085 372.3188101008126L626.4834118605063 265.17138732055196L628.5636336289401 265.17138732055196L628.5636336289401 390.52875142756534L610.5777161849419 390.52875142756534ZM852.075461794215 393.2810448442625L852.075461794215 393.2810448442625Q837.5459128269993 393.2810448442625 825.4486231582601 388.0644887172666Q813.3513334895212 382.81592917844864 805.9905487704469 372.542833983567Q798.5977606395509 362.3017422005074 798.3737367567965 347.19613182049454L798.3737367567965 347.19613182049454L815.8796030234639 347.19613182049454Q815.8796030234639 357.3412133680879 820.8401318558833 363.8699093797884Q825.8006606883029 370.3666019796668 833.9935341147504 373.53493975005085Q842.1544041293761 376.7032775204349 851.8514379114605 376.7032775204349L851.8514379114605 376.7032775204349Q862.3165535772745 376.7032775204349 870.0293758263913 373.3749226909406Q877.7742014873301 370.0145644496241 881.9666484360201 364.5419810280516Q886.1590953847101 359.06939760647924 886.1590953847101 352.50869818295666L886.1590953847101 352.50869818295666Q886.1590953847101 343.29171557820314 880.5264949040273 337.59510827387624Q874.8938944233445 331.89850096954933 863.8207139329114 328.31411884547845L863.8207139329114 328.31411884547845L838.2499878870846 319.32116012347933Q820.2640704430863 312.88847434724505 811.0470878383327 304.56758727350916Q801.830105233579 296.27870361159535 801.830105233579 281.30110687887077L801.830105233579 281.30110687887077Q801.830105233579 264.4993156722886 814.7914870215137 253.87418294736435Q827.7528688094486 243.28105363426212 851.5954106168841 243.28105363426212L851.5954106168841 243.28105363426212Q873.7417715977505 243.28105363426212 886.1590953847101 253.49014200549962Q898.6084225834919 263.667226964915 900.4646204691713 280.85305911336184L900.4646204691713 280.85305911336184L882.7027269079275 280.85305911336184Q880.9745426695362 270.8359912130568 873.3257272440636 265.23539414419605Q865.676911818591 259.63479707533537 851.5954106168841 259.63479707533537L851.5954106168841 259.63479707533537Q837.3218889442448 259.63479707533537 829.3850428123736 265.9714726161035Q821.4161932686804 272.30814815687154 821.4161932686804 282.00518193895607L821.4161932686804 282.00518193895607Q821.4161932686804 289.9420280708272 826.440728924744 294.61452619684815Q831.4332611689856 299.2870243228691 842.1544041293761 302.9674166824061L842.1544041293761 302.9674166824061L872.1095975948252 313.33652211275387Q887.6632557403469 318.5210748279278 896.7202212859903 327.86607107996963Q905.7451834198115 337.1790639201894 905.7451834198115 352.06065041744785L905.7451834198115 352.06065041744785Q905.7451834198115 363.58187867338984 899.6005283499757 372.8948715136096Q893.423869868318 382.2398677656514 881.4545938468672 387.77645801086805Q869.4533144135942 393.2810448442625 852.075461794215 393.2810448442625Z " fill="#000000" transform="matrix(0.9660553557266138,0,0,0.9660553557266138,0,-7.477126063559936)"/></g></svg>